<?xml version="1.0" encoding="utf-8"?>
<!-- Generator: Adobe Illustrator 27.0.0, SVG Export Plug-In . SVG Version: 6.00 Build 0)  -->
<svg version="1.1" id="图层_1" xmlns="http://www.w3.org/2000/svg" xmlns:xlink="http://www.w3.org/1999/xlink" x="0px" y="0px"
	 viewBox="0 0 841.9 595.3" style="enable-background:new 0 0 841.9 595.3;" xml:space="preserve">
<g>
	<circle cx="448.7" cy="207.4" r="8.1"/>
	<path d="M378.3,102.4c-5.7-4.2-12.4-7.8-19.1-11.1c-10.3-5-21.3-9-34.6-10.7c-28.1-3.7-53.5-1.7-77.8,12.8
		c-19.3,11.5-34,26-45.5,43.3c-7,10.6-9.5,17.1-13.9,28.4c-1.9,4.8-4.1,12.9-5.7,20.3c-0.3,1.2-0.4,1.9-0.4,3.1
		c0,3.2,2.8,5.7,5.8,5.7c1.3,0,3.6-0.4,4.8-1.9c0.8-1,1.3-1.8,1.6-3c5-30,21.5-57.3,46.7-76.7c22-17,49.1-24.1,77.8-20.6
		c31.9,3.9,55.8,19.6,75.9,40.5c1.2,1.2,1.6,1.3,2.8,1.8c0.5,0.2,2.6,0.6,3.9,0c1-0.5,2.1-0.8,3.3-2.7c0.6-1,1.7-3.6,0.2-6
		c-2-3.1-4.5-5.6-8.6-9.1C391.3,113.3,386.6,108.5,378.3,102.4z"/>
	<path d="M442.6,225.2c-3-1.9-6.7-0.8-8.6,2.3c-1.2,1.8-2.9,4.9-3.4,5.6c-12.9,20.1-23.8,35.8-39.8,52.6
		c-16.3,17.2-33.1,28.6-61.1,34.8c-26.2,5.8-51.3,4.7-78.1-11c-15.3-8.9-29.1-19.8-38.8-34.7c-8.3-12.7-15.9-27.6-19.5-46
		c-0.6-3.3-3.9-5.1-7-4.4c-7.5,1.6-4.5,10-4,12.2c1.6,7.8,3.9,13.8,7.2,21.4c10.8,24.8,28.8,45.4,52,60c21.5,13.5,48,20.3,73.4,17.2
		c17.6-2.1,34.6-5.9,50.3-14.4c19.1-10.4,30-20.3,45.8-38.8c10.9-12.7,17.1-22.2,29.4-41.4c1.9-2.9,2.5-3.7,3.5-5.3
		C444.8,234.1,447.7,228.3,442.6,225.2z"/>
	<path d="M373.3,175.3c-3.3-4.7-5.3-7.7-9.2-12c-4.3-4.8-9.3-9-14.4-12.6c-2.4-1.7-4.8-3.2-7.1-4.7c-2.3-1.4-11.9-7-20.3-9.2
		c-15.8-4.3-30.7-4-44.1,1.3c-17,6.7-27.2,19-35.1,35.1c-2.1,4.3-4.2,7.7-6.1,12.6c-0.9,2.3-0.3,4.4,1.1,6.2
		c1.4,1.8,5.2,3.7,8.8,0.5c0.8-0.7,1.6-2.5,2-3.5c1.7-4,3.5-7.4,5.3-11c1.9-3.6,3.5-7,5.7-10c4.8-6.6,10.9-12.5,17.5-16.2
		c11.5-6.6,24.7-7.4,38.1-4.2c10.1,2.4,19,7.3,27.1,13.1c6.6,4.8,12.9,11.1,17.6,17.2c1.5,2,1.5,2.7,3.2,4.6c1,1.1,2,1.6,3.2,1.8
		c1.3,0.3,2.7,0.3,4-0.5c2.1-1.3,2.5-1.9,3.1-3.4c0.3-0.8,0.4-1.1,0.4-2.4C374.2,177.2,373.8,176,373.3,175.3z"/>
	<path d="M655.9,187.9c0-1.2-0.2-1.6-0.4-2.8c-2.6-12.5-5.3-22.4-12-36.3c-5.9-12.3-12.6-22.1-21.8-31.5
		c-7.2-7.4-16.8-14.8-25.9-20.5c-11.5-7.2-25.5-13.2-40-16.1c-13.4-2.7-27.2-2.7-39.7-1.1c-19.9,2.6-36.2,8.1-53.3,18.6
		c-19.6,12-32.4,28.4-46,46.6c-6.2,8.2-14.9,21.4-22.4,32.6c-1.9,2.9-3.2,4.7-4.8,7.2c-0.8,1.1-1.3,4.5,0.7,6.9c1.1,1.3,3,2.1,4,2.2
		c0.6,0,1.7,0,2.2-0.1c1.2-0.2,2.8-1.3,3.7-2.7c7.6-11.5,14.2-22,22.5-33.2c13.7-18.4,25.2-35.2,44.9-47.7
		c40.1-25.6,86-26.4,126.6,0.5c22.7,15.1,37.4,36.6,45.4,62.5c1.5,4.7,2.7,9.3,3.7,14c0.3,1.3,0.3,1.5,0.5,2.8c0.1,0.8,1,2,1.4,2.5
		c0.8,0.9,1.8,1.7,3.5,1.9c2.1,0.3,3.5-0.4,4.4-0.9C654.8,192.1,655.9,190,655.9,187.9z"/>
	<path d="M370.8,222.8c-1.7,0-3.3,1.1-4.3,2.4c-3.5,4.7-6.8,8.7-12.4,14.3c-9.7,9.6-18.9,19.5-33.1,25c-6.7,2.6-13.6,4.3-19.8,4.5
		c-6.8,0.2-12.2-0.6-18-3.2c-1.7-0.8-12.5-6.2-16.9-10.1c-7.3-6.4-13-15.9-16.8-25.4c-0.6-1.4-0.6-1.7-1.1-2.9c-0.2-0.5-2.2-4-6.8-3
		c-3,0.6-4.2,3.4-4.4,4.1c-0.9,2.6,0.3,4.5,1,6.4c5.4,14.9,15.4,28.4,29.8,36.6c12.2,6.9,25,11.1,39.3,9.2
		c23.6-3.1,40.6-16.5,56.6-33.5c4.7-5,8.2-8.9,12.5-14.4c2.8-3.6,1.2-8.9-3.2-9.9L370.8,222.8z"/>
	<path d="M648.2,222.7c-2.9,0.3-4.9,2.9-5.3,4.9c-2.7,14.5-7.3,28.7-15.7,41.2c-13.4,20.1-29.7,34.5-48.4,43.7
		c-3.8,1.9-8.7,3.6-12.8,5c-8.6,2.9-17.1,4.9-27.3,5.7c-10.8,0.9-20.5,0.2-30.5-1.8c-6.5-1.3-12.4-3.1-19.1-5.7
		c-4.9-1.9-10.6-4.4-15.2-7.2c-8.4-5.1-15.8-10.3-22.8-16.9c-3-2.8-4.8-5.2-7.8-8.3c-1.1-1.1-2.2-2.9-3.8-4.1
		c-2.2-1.5-6.4-0.4-7.8,1.8c-1.6,2.6-1.2,3.1-1.2,4.2c0,1.6,1.2,3.1,1.4,3.3c1.6,2.1,5.2,6.7,10.1,11.3
		c18.2,17.1,34.1,25.4,56.7,31.9c15.6,4.5,34.7,5.4,51.3,2.5c53.7-9.7,91.1-48.4,103.4-96.6c0.8-3.1,1-4.4,1.7-7.8
		c0.6-2.9-1.3-5.6-4-6.7C650.5,222.8,648.9,222.6,648.2,222.7z"/>
	<path d="M389.2,150.2c-0.9-1.4-1.9-2.2-2.4-2.8c-0.8-1-1.1-1.3-3.3-3.4c-11.6-11.6-23-20.4-38.2-27.7
		c-24.7-11.9-50.3-14.4-76.1-3.1c-19.3,8.5-34.5,20.8-46.1,38.6c-6,9.2-10.8,20.3-13.2,30.7c-0.9,3.6-1.3,3.5-1.1,6.5
		c0.1,1.4,1,2.8,2.1,3.8c0.9,0.9,1.6,1.2,2.8,1.4c2,0.4,3.1,0.2,5-1.2c1.5-1.1,2.1-2.5,2.4-4.2c1-5.5,2.7-9.2,4.6-14.4
		c6.4-17.6,17.7-31.3,33.1-41.8c17.8-12.1,37.2-17.4,58.4-12.8c25.2,5.4,44.6,19.1,61.5,37.3c1.6,1.8,1.8,1.8,3.5,2.5
		c0.6,0.2,1.5,0.3,2.6,0.2c1.6-0.2,2.6-0.7,3.6-1.8c0.7-0.8,1.8-1.7,1.8-4.5C390.2,152.4,389.6,150.9,389.2,150.2z"/>
	<path d="M619.4,222.6c-1.9,0.2-4.6,1.9-5.1,4.3c-5.1,24.3-18.1,44.6-39.6,57.7c-23.9,14.6-48.8,15.7-74.2,4.8
		c-17.6-7.6-31.6-19.9-43.5-34.8c-0.1-0.1-0.1-0.2-0.2-0.2c-1.9-1.7-3.2-1.8-4.4-1.8c-1.4,0-2.2,0.2-3.5,1.1c-0.3,0.2-1.2,1-1.4,1.4
		c-0.1,0.1-0.6,0.8-0.6,1c-0.2,0.4-0.4,0.9-0.4,1.1c-0.2,1-0.2,2.1-0.2,2.3c0.2,1.5,0.5,2.3,2.2,4.3c1.1,1.3,3.1,3.3,4.2,4.6l0,0
		c12.6,14.3,28.4,25.4,46.1,32.5c10.1,4.1,20.5,7.5,31.6,7.7c40,0.6,77.5-25.9,91.5-64.7c1.6-4.4,3.5-9.2,4.2-14.7
		c0.4-2.9-2-6.2-5-6.7C621.2,222.6,620.6,222.4,619.4,222.6z"/>
	<path d="M626.7,186.2c-6.7-39.8-34.6-67.1-71.7-77.7c-15.9-4.5-32.1-3.7-47.7,1.8c-19.3,6.9-36.2,17.5-50.1,32.8
		c-10.6,11.7-30.5,39.3-39.1,51.8l0,0l0,0.1c-0.4,0.6-0.8,1.2-1.2,1.7h0.1l-17.4,26.8c-7.8,11.8-16.5,24.6-20.7,29.6
		c-6.9,8.2-13.9,15.9-21.8,22c-3.9,3-7.5,6.2-14.5,9.9c-12,7.1-23.6,10.5-37.5,11.1c-17.2,0.7-33.9-4.3-47.8-14
		c-7.8-5.5-14.8-12.4-20.4-20.7c-4.4-6.5-8.7-15.1-10.8-19.6c-1.4-3-3-6.5-4.5-11.4c-0.6-1.8-1.9-7.2-8.1-5.7
		c-4.4,1.1-4.7,5.5-4.1,7.7c1.9,6.9,7.1,18,10.2,23.8c10,18.2,21.9,31.6,40.2,41.6c12.5,6.8,25.1,10.5,39.5,10.6
		c13.1,0.1,29.4-4.1,41.3-8.8c4.6-1.8,15.7-8,21-12c8.5-6.4,18.6-17,20.2-18.8c5.4-5.8,9.2-11.3,15.1-19c4.9-6.4,4.1-6.4,8.7-12.7
		c4-5.5,7.1-10.1,9.1-13.1c0,0,0,0,0,0l0.1-0.2c0.3-0.4,0.6-0.9,0.9-1.3h0l19.3-29.4c5.1-7.5,10.1-14.8,13.2-18.7
		c10.9-13.6,18.9-26.4,33.3-36.8c14.2-10.3,29.6-17.8,47.1-19.2c39.1-3.1,75.5,23.9,84.8,62.3c0.6,2.4,1,5.1,1.4,7.8
		c0.5,3.4,3.5,5.7,6.8,5.5c0.9-0.1,1.7-0.2,2.5-0.7c1.2-0.7,1.9-1.7,2.5-2.8C627.2,188.5,626.7,186.6,626.7,186.2z"/>
	<path d="M602.5,205.8c0-6.8-2.1-16.3-2.1-16.3h0c-2.6-14-8.2-26.9-18.7-37c-20.5-19.6-44.8-24.6-71.6-14.6
		c-20.1,7.5-34.8,21.6-46.7,38.8c-2.3,3.3-2,2.8-4.4,6.3c-2.4,3.5-2.5,7.2,0.3,9.3c3.4,2.6,7.5,1.2,9.5-1.7c2.2-3.3,3.7-5,4.8-6.6
		c9.2-13.9,18.8-23,33.6-31c34.7-18.9,71,1,79.7,32c0.5,1.9,0.9,3.8,1.2,5.7c0,0.1,1.5,11.7,1.6,14.9c0.3,6.6-1,13.9-1.6,17h0
		c-3.6,19.9-17.9,37.5-37.1,43.3c-15.9,4.8-30,4.9-43-1.8c-3.9-2-17.2-11.1-22.2-16.5c-4.4-4.7-9.1-10.9-12.5-15.7
		c-2.5-3.6-7.5-2.7-9.2-0.6c0,0-0.6,0.8-0.7,0.8c-0.7,1.1-0.7,1.3-1,2.3c-0.1,0.5-0.2,1.6,0,2.3c0.1,0.3,0.3,1.4,0.5,1.7
		c10.8,17.2,26,29.2,44.7,37.4c34.7,15.3,76.8-2,90.3-41.2C598.7,231.8,602.5,216.3,602.5,205.8z"/>
	<path d="M627.5,214.1h-14.2c-1.3,0-2.4-1.2-2.4-2.6v-8.2c0-1.5,1.1-2.6,2.4-2.6h14.2c1.3,0,2.4,1.2,2.4,2.6v8.2
		C629.9,212.9,628.8,214.1,627.5,214.1z"/>
	<path d="M655,214.1h-14.7c-1.2,0-2.1-1.1-2.1-2.4v-8.7c0-1.3,1-2.4,2.1-2.4H655c1.2,0,2.1,1.1,2.1,2.4v8.7
		C657.1,213.1,656.2,214.1,655,214.1z"/>
	<circle cx="240.2" cy="207.4" r="8.1"/>
	<circle cx="213.5" cy="207.4" r="8.1"/>
	<circle cx="185.5" cy="207.4" r="8.1"/>
	<path d="M388.8,214.1H373c-1.5,0-2.6-1.2-2.6-2.6v-8.2c0-1.5,1.2-2.6,2.6-2.6h15.8c1.5,0,2.6,1.2,2.6,2.6v8.2
		C391.4,212.9,390.2,214.1,388.8,214.1z"/>
	<path d="M407.9,444c-6.5-10.4-12.4-19.8-18.8-30c0,12.3,0,23.7,0,35.4c-4.6,0-8.7,0-13,0c0-19.7,0-39.6,0-59.6
		c4-0.2,7.7-0.1,11.4,0c0.8,0,1.6,1.4,2.2,2.3c6.1,9.5,12.2,19.1,18.2,28.5c5.8-9,11.7-18,17.3-27.1c1.6-2.6,1.2-2.8,2.3-3.7
		c2.5,0.1,10.1,0,13.2,0c0.1,0.6,0,1.4,0,2.3c0,16.4,0,32.7,0.1,49.1c0,1.5,0,6.7,0,8.2c-2.8,0.2-13.7,0-13.7,0s0-4.5,0-9.4
		c0.1-8.2,0-16.5,0-25.8C420.6,424.5,414.6,433.8,407.9,444z"/>
	<path d="M322.6,403.2c0,3.6,0,6.6,0,9.9c8.6,0,17.8,0,26.6,0c0.1,1.8-0.2,7.6,0,11.8c-9,0-17.7,0-26.7,0c0,4.1,0,7.7,0,11.4
		c10.3,0,20.1,0,30.4,0c0,4.4,0,8.3,0,12.8c-14.6,0-28.7,0-43.5,0c0-19.4,0-39.2,0-59.1c14.7,0,29,0,43.5,0c0,3.9,0.1,11.2,0,13.1
		c-7.6,0.2-18.5-0.1-26.1,0C325.6,403.2,324.3,403.2,322.6,403.2z"/>
	<path d="M224.2,397.7c-2.7,2.8-5.4,5.6-8.1,8.4c-4.4-3-9.5-4.6-15.1-4.4c-3.1,0.1-6,1.1-6.3,4.5c-0.3,3.1,2.5,4.1,5.1,4.9
		c5.4,1.7,10.7,3.5,16.1,5.2c12.4,4,11.7,21.2,4,27.5c-7.3,6-14.7,6.4-24.3,5.1c-6.9-1.8-12.3-5.1-17-8.7c3-3.7,5.5-6.8,7.8-9.6
		c3.9,1.8,8.1,4.2,12.7,5.5c2.9,0.8,6.4,0.3,9.4-0.5c1.5-0.4,3.3-2.7,3.5-4.3c0.1-1.2-1.8-3.4-3.3-3.9c-4.9-1.9-10.1-3-15.1-4.8
		c-6-2.1-10.5-5.9-12-12.5c-1.7-7.3,1.2-12.6,6.8-16.8C199,385.3,216.3,387.7,224.2,397.7z"/>
	<path d="M272.5,402.9c0,15.8,0,30.7,0,46.3c-4.3,0-9.3,0.1-12.4,0c-0.1-1.8-0.1-43.8,0-45.6c-6.2,0-12.2,0-18.3,0
		c0-4.8,0-9.1,0-13.7c16.5,0,32.7,0,49.3,0c0.1,2.8,0.1,9.9,0,12.9C285.3,402.9,278.9,402.9,272.5,402.9z"/>
	<g>
		<path d="M463.8,389.8h3.6v26.7h38.9v-26.7h3.7v60.3h-3.7v-30.8h-38.9v30.8h-3.6V389.8z"/>
		<path d="M530.9,427.5v-37.7h3.6v37c0,16.5,9.3,21.4,19.4,21.4c10.3,0,19.8-4.9,19.8-21.4v-37h3.5v37.7c0,18.7-11.9,23.7-23.2,23.7
			C542.4,451.2,530.9,446.2,530.9,427.5z"/>
		<path d="M597.9,389.8h18.3c14,0,22.8,4.7,22.8,14.6c0,6.4-3.9,11.3-11.1,13.1v0.4c9.3,1.2,15.4,6.2,15.4,14.6
			c0,11.5-10,17.5-25.9,17.5h-19.6V389.8z M614.1,416.5c15.2,0,21.2-4.5,21.2-12c0-8.9-7-12.1-20.5-12.1h-13.3v24.1H614.1z
			 M616.3,447.3c14.6,0,23.6-4.5,23.6-14.6c0-9.1-8.7-13.5-23.6-13.5h-14.7v28.1H616.3z"/>
	</g>
	<g>
		<path d="M646,376.8c0-7.1,5.2-12,11.4-12c6.3,0,11.4,4.9,11.4,12c0,7.1-5.2,12-11.4,12C651.2,388.8,646,383.9,646,376.8z
			 M666.5,376.8c0-5.7-3.9-9.8-9-9.8c-5.1,0-9,4.1-9,9.8c0,5.8,3.9,9.8,9,9.8C662.6,386.6,666.5,382.6,666.5,376.8z M653,370.4h4.6
			c2.5,0,4.8,1.1,4.8,4c0,1.5-1,2.9-2.3,3.4l2.8,5.1h-2.8l-2.2-4.3h-2.5v4.3H653V370.4z M657.1,376.6c1.6,0,2.6-0.7,2.6-2.1
			c0-1.2-0.7-2-2.5-2h-1.7v4.1H657.1z"/>
	</g>
	<g>
		<g>
			<path d="M199.7,479.4h-18.1v-3.1h18.1V479.4z M182.4,491.3h16.7v14.6c0,0.7-0.1,1.2-0.2,1.7s-0.3,0.8-0.6,1.1
				c-0.3,0.3-0.7,0.5-1.2,0.6c-0.5,0.1-1.1,0.2-1.8,0.3l-1.6,0.1l-0.9-3.2l1.5-0.1c0.6-0.1,1-0.2,1.2-0.4c0.2-0.2,0.3-0.7,0.3-1.3
				v-10.4h-10.4v14.9h-3.1V491.3z M183.8,489.4v-8.1h13.8v8.1H183.8z M192.3,502.3v6.2h-3.1v-6.2H186v-2.9h2.1
				c-0.6-1.2-1.2-2.4-2-3.6l2.2-1.2c0.4,0.6,0.8,1.2,1.1,1.9c0.3,0.6,0.7,1.3,1,2l-1.8,1h2c0.2-0.4,0.4-0.8,0.7-1.3
				c0.2-0.4,0.5-0.9,0.7-1.3c0.2-0.4,0.4-0.9,0.6-1.3c0.2-0.4,0.3-0.7,0.5-1.1l2.5,1.1c-0.2,0.5-0.5,1.1-0.9,1.8
				c-0.3,0.7-0.7,1.4-1.1,2.1h2.1v2.9H192.3z M186.9,486.5h7.5v-2.3h-7.5V486.5z M213.2,509.7c-0.1-0.4-0.1-0.9-0.3-1.4
				c-0.1-0.5-0.2-1.1-0.4-1.6c-2,0.2-4.1,0.4-6.2,0.6c-2.1,0.2-4.3,0.4-6.5,0.5l-0.3-3.5c2-0.1,4-0.2,6-0.4v-7.5h-5.1v-16h5.1v-6.1
				l3.3,0.2v5.9h5.2v16h-5.2v7.3c0.5-0.1,1-0.1,1.5-0.2c0.5-0.1,1-0.1,1.5-0.2c-0.2-0.9-0.5-1.7-0.7-2.5c-0.3-0.8-0.5-1.4-0.7-1.9
				l3.2-1c0.2,0.5,0.4,1.3,0.7,2.2c0.3,0.9,0.6,1.8,0.9,2.8c0.3,1,0.6,1.9,0.8,2.9c0.2,0.9,0.4,1.7,0.5,2.3L213.2,509.7z
				 M205.5,493.1v-9.3h-2v9.3H205.5z M208.7,483.9v9.3h2.1v-9.3H208.7z"/>
			<path d="M260.9,474c1.7,2.8,4,5.3,6.9,7.5c2.9,2.2,6.1,4.2,9.5,5.8l-1.9,4c-1.2-0.6-2.4-1.2-3.5-1.9c-1.1-0.7-2.2-1.4-3.3-2.1
				v2.4h-18.9v-2.2c-1,0.7-2.1,1.4-3.3,2.1c-1.1,0.7-2.3,1.3-3.5,1.9l-1.7-4c1.7-0.8,3.3-1.7,5-2.7c1.6-1,3.2-2.1,4.6-3.3
				s2.7-2.4,3.9-3.6c1.2-1.3,2.1-2.5,2.9-3.8H260.9z M246.8,493.5h24.9v16h-3.9v-1.6h-16.9v1.6h-4.1V493.5z M250.9,497.1v7.3h16.9
				v-7.3H250.9z M266.9,485.9c-1.5-1.2-2.9-2.4-4.2-3.7c-1.3-1.3-2.4-2.6-3.4-4.1c-0.9,1.3-2,2.6-3.3,3.9c-1.3,1.3-2.7,2.6-4.3,3.8
				H266.9z"/>
			<path d="M329.9,499.1c1,1.3,2.2,2.6,3.5,3.8c1.3,1.2,2.8,2.5,4.6,3.7l-2.5,3.8c-3.2-2.5-5.9-5.1-8-7.8c-1.1,1.3-2.3,2.6-3.7,3.9
				c-1.4,1.3-2.9,2.6-4.7,3.9l-2.6-3.4c2-1.3,3.7-2.6,5.1-3.9c1.4-1.2,2.7-2.5,3.7-3.9c-1.4-2.5-2.4-5.2-3.1-8.1
				c-0.2,0.3-0.4,0.6-0.5,0.8c-0.2,0.3-0.4,0.5-0.6,0.8l-2.4-2.8c0.1-0.2,0.2-0.4,0.4-0.5c0.1-0.2,0.2-0.4,0.3-0.6h-4.9
				c-0.7,0.8-1.4,1.5-2.1,2.2h7.3v3.3l-5.4,3.9v0.1c1.5-0.2,2.8-0.4,4-0.5c1.2-0.2,2-0.3,2.5-0.3l0.1,3.6c-0.5,0.1-1.4,0.2-2.6,0.3
				c-1.2,0.2-2.5,0.3-4,0.5v4c0,0.8-0.1,1.4-0.2,1.9c-0.1,0.5-0.3,0.9-0.6,1.2c-0.3,0.3-0.7,0.5-1.3,0.6c-0.6,0.1-1.3,0.2-2.1,0.3
				l-2.7,0.2l-1.1-3.6l2.4-0.2c0.4-0.1,0.8-0.1,1.1-0.2c0.3-0.1,0.5-0.1,0.6-0.3c0.2-0.1,0.3-0.3,0.3-0.5c0.1-0.2,0.1-0.6,0.1-1v-2
				l-7.4,1l-0.4-3.6c0.3,0,0.7-0.1,1.2-0.1c0.5-0.1,1.1-0.1,1.8-0.2c0.7-0.1,1.4-0.2,2.3-0.3c0.8-0.1,1.6-0.2,2.5-0.3v-1.5l3.8-2.9
				h-5.7c-1.6,1.4-3.4,2.8-5.3,4.1l-2-3c3.1-2,5.9-4.2,8.4-6.7H303v-3.5h6v-3.5h-4.5v-3.2h4.5v-4.3l3.5,0.2v4.2h3.8v2.4
				c0.5-0.8,1-1.6,1.4-2.4c0.4-0.8,0.9-1.7,1.3-2.5l3,1.6c-0.7,1.4-1.3,2.7-2.1,4c-0.7,1.3-1.5,2.5-2.4,3.6h3.1v1.5
				c0.5-1,0.9-2,1.4-3.1c0.4-1.1,0.9-2.2,1.2-3.3c0.4-1.1,0.7-2.2,1-3.2c0.3-1,0.5-2,0.7-2.9l3.7,0.4c-0.5,1.9-1,3.8-1.5,5.6h10v3.6
				h-2.5c-0.4,3.1-0.9,5.9-1.6,8.3C332.1,494.7,331.2,497,329.9,499.1z M312.4,485.4h0.7c0.4-0.6,0.9-1.2,1.3-1.7
				c0.4-0.6,0.8-1.2,1.2-1.8h-3.3V485.4z M324.8,486.3c0.3,1.8,0.7,3.5,1.1,5c0.5,1.5,1.1,3,1.8,4.3c0.8-1.6,1.4-3.3,1.9-5.2
				c0.5-1.9,0.9-4,1.2-6.4h-5.1c-0.2,0.4-0.3,0.7-0.5,1.1C325.1,485.5,324.9,485.9,324.8,486.3z"/>
			<path d="M397.6,480.8h-9.1c1.3,0.9,2.5,1.8,3.9,2.8c1.3,1,2.5,2,3.5,2.9l-2,3.5c-0.4-0.4-0.8-0.8-1.3-1.2c-0.5-0.4-1-0.8-1.5-1.3
				c-0.8,0-2,0-3.6,0.1c-1.6,0-3.3,0.1-5.2,0.1c-1.9,0.1-3.8,0.1-5.8,0.2c-2,0.1-3.9,0.1-5.6,0.2c-0.9,0.1-1.8,0.1-2.5,0.1
				c-0.8,0-1.5,0.1-2.1,0.1l-0.6-3.8c0.5-0.1,0.9-0.2,1.3-0.3c0.3-0.2,0.6-0.3,0.8-0.4c0.8-0.4,1.6-0.8,2.5-1.3
				c0.9-0.5,1.7-1.1,2.6-1.7h-9.6v-3.4h15.3c-0.1-0.5-0.3-1-0.4-1.5c-0.1-0.5-0.3-1-0.5-1.5l4.1-0.7c0.2,0.5,0.4,1.1,0.5,1.7
				c0.2,0.6,0.4,1.3,0.6,1.9h14.8V480.8z M367.9,489.8h25.1V505c0,0.8-0.1,1.5-0.2,2c-0.1,0.6-0.4,1-0.7,1.4
				c-0.4,0.4-0.8,0.6-1.5,0.8s-1.4,0.3-2.4,0.4l-3.4,0.2l-1.1-3.4l3.7-0.2c0.7-0.1,1.2-0.2,1.4-0.4c0.3-0.2,0.4-0.7,0.4-1.4v-0.4
				h-17.6v5.4h-3.7V489.8z M371.6,492.9v2.4h17.6v-2.4H371.6z M389.2,501v-2.5h-17.6v2.5H389.2z M387.2,484.4
				c-0.6-0.5-1.2-0.9-1.8-1.4c-0.5-0.4-1-0.8-1.5-1.1l1-1.1h-6.5c-1,0.8-2,1.6-2.9,2.3c-1,0.7-1.8,1.2-2.5,1.6L387.2,484.4z"/>
			<path d="M434.5,479.8c-1.8,2.4-3.8,4.6-6.1,6.7h12.9c0,0.3,0,0.8,0,1.5c0,0.7,0,1.5-0.1,2.4c0,0.9-0.1,1.8-0.1,2.6
				c0,0.9-0.1,1.6-0.1,2.3c0,0.9-0.1,1.6-0.3,2.2c-0.2,0.6-0.4,1-0.8,1.4c-0.4,0.4-0.8,0.6-1.5,0.8c-0.6,0.2-1.4,0.3-2.3,0.4
				l-2.1,0.2l-1.1-3.5l2.1-0.2c0.5,0,0.9-0.1,1.3-0.1s0.6-0.2,0.7-0.3c0.2-0.1,0.3-0.4,0.3-0.6c0.1-0.3,0.1-0.6,0.1-1.1
				c0-0.3,0-0.6,0-1.1c0-0.4,0-0.8,0.1-1.3c0-0.4,0-0.8,0-1.2c0-0.4,0-0.7,0-0.8h-7.2v12.5c0,0.6,0,1.1,0.1,1.4
				c0,0.4,0.1,0.6,0.3,0.8c0.2,0.2,0.4,0.3,0.8,0.4c0.3,0.1,0.8,0.1,1.4,0.2c0.8,0.1,1.5,0.1,2.2,0.1c0.7,0,1.5,0,2.2-0.1
				c0.5-0.1,0.9-0.1,1.2-0.2c0.3-0.1,0.6-0.2,0.7-0.4c0.2-0.2,0.3-0.4,0.4-0.7c0.1-0.3,0.2-0.7,0.3-1.2c0.1-0.4,0.1-0.9,0.2-1.4
				c0.1-0.5,0.1-1,0.2-1.5l3.7,1.2c-0.1,0.5-0.1,1.1-0.2,1.8c-0.1,0.7-0.2,1.2-0.3,1.7c-0.2,0.8-0.4,1.5-0.6,2c-0.2,0.5-0.6,1-1,1.3
				c-0.4,0.3-1,0.6-1.6,0.7c-0.7,0.2-1.6,0.3-2.6,0.3c-2,0.1-4,0.1-6,0c-0.9-0.1-1.7-0.2-2.4-0.4c-0.7-0.2-1.2-0.5-1.6-0.9
				c-0.4-0.4-0.7-0.9-0.9-1.6c-0.2-0.7-0.3-1.5-0.3-2.6v-15.8c-0.7,0.6-1.4,1.1-2.1,1.6l-2.3-3c1.1-0.8,2.2-1.7,3.3-2.7
				c1.1-1,2.2-2.1,3.2-3.2c1-1.1,1.9-2.3,2.7-3.5c0.8-1.2,1.5-2.3,2-3.5l3.5,1.8c-0.1,0.3-0.3,0.5-0.4,0.7c-0.1,0.2-0.3,0.5-0.4,0.7
				c0.7,0.5,1.4,1.1,2.1,1.7c0.8,0.6,1.5,1.3,2.3,1.9c0.8,0.7,1.5,1.3,2.2,2s1.4,1.3,1.9,1.9l-2.2,3.2c-0.5-0.6-1.1-1.2-1.8-1.9
				c-0.7-0.7-1.4-1.4-2.1-2.1c-0.7-0.7-1.5-1.4-2.2-2C435.9,480.9,435.2,480.3,434.5,479.8z M449,500.3h-3.7v-22.5l3.7,0.2V500.3z
				 M456.4,474.9v29.9c0,0.9-0.1,1.7-0.2,2.2c-0.1,0.6-0.4,1-0.8,1.4c-0.4,0.4-0.9,0.6-1.6,0.8c-0.7,0.2-1.6,0.3-2.7,0.4l-2.4,0.2
				l-1.3-4.1l2.6-0.2c0.5-0.1,1-0.1,1.3-0.2c0.3-0.1,0.6-0.2,0.8-0.4c0.2-0.2,0.4-0.4,0.5-0.7c0.1-0.3,0.1-0.6,0.1-1.1v-28.4
				L456.4,474.9z"/>
			<path d="M491,498.9c-0.3,0.7-0.6,1.5-1,2.3c-0.4,0.8-0.8,1.6-1.2,2.4c-0.4,0.8-0.9,1.5-1.3,2.3c-0.5,0.7-0.9,1.4-1.3,2l-2.9-1.7
				c0.4-0.6,0.8-1.2,1.3-1.8c0.4-0.7,0.9-1.4,1.3-2.1c0.4-0.7,0.8-1.5,1.2-2.2c0.4-0.8,0.6-1.5,0.9-2.2L491,498.9z M495.7,497.3v8.5
				c0,0.8-0.1,1.4-0.2,1.8c-0.1,0.5-0.3,0.8-0.6,1.1c-0.3,0.3-0.8,0.5-1.3,0.6c-0.6,0.1-1.3,0.2-2.1,0.4l-1.5,0.2l-1.2-3.8l1.5-0.2
				c0.7-0.1,1.2-0.3,1.4-0.5c0.2-0.2,0.4-0.7,0.4-1.4v-6.7H485v-3.4h7.1v-3.6h-7.5v-3.4h4.2c-0.1-0.8-0.2-1.8-0.3-2.8
				c-0.1-1-0.2-1.9-0.3-2.7h-2.6v-3.4h6.4c-0.2-0.6-0.4-1.3-0.5-1.9c-0.2-0.6-0.3-1.1-0.4-1.5l3.6-0.5c0.2,0.4,0.3,1,0.5,1.7
				c0.2,0.7,0.4,1.4,0.6,2.2h6.3v3.4h-2.4l-0.6,5.5h3.8v3.4h-7.2v3.6h6.6v3.4H495.7z M491.5,481.3c0.1,0.8,0.2,1.8,0.3,2.7
				c0.1,1,0.2,1.9,0.3,2.7h3.5c0.1-0.8,0.3-1.8,0.4-2.7c0.1-1,0.2-1.9,0.3-2.7H491.5z M499.6,505.2c-0.2-0.4-0.4-0.8-0.7-1.4
				c-0.3-0.5-0.6-1-1-1.5c-0.4-0.5-0.7-1-1.1-1.5c-0.4-0.5-0.7-0.9-0.9-1.2l2.6-1.9c0.3,0.3,0.6,0.7,0.9,1.2c0.3,0.4,0.7,0.9,1,1.4
				c0.3,0.5,0.7,0.9,1,1.4c0.3,0.5,0.6,0.9,0.8,1.3L499.6,505.2z M518.9,490.9h-4v18.7h-3.7v-18.7h-3.9c0,2.4-0.1,4.5-0.2,6.3
				c-0.1,1.8-0.3,3.4-0.7,4.9c-0.3,1.5-0.8,2.9-1.4,4.2c-0.6,1.3-1.4,2.7-2.4,4.2l-3.6-1.8c1-1.3,1.8-2.6,2.4-3.8
				c0.6-1.2,1.1-2.5,1.4-3.9c0.3-1.4,0.6-3,0.7-4.7c0.1-1.7,0.2-3.8,0.2-6.2v-12.4c1.1-0.1,2.3-0.2,3.5-0.4s2.3-0.4,3.5-0.6
				c1.1-0.2,2.2-0.5,3.2-0.8c1-0.3,1.9-0.6,2.8-0.9l1.2,3.8c-0.7,0.3-1.4,0.5-2.3,0.8s-1.7,0.5-2.6,0.7c-0.9,0.2-1.8,0.4-2.8,0.6
				c-1,0.2-1.9,0.3-2.8,0.4v5.9h11.6V490.9z"/>
			<path d="M577,498.7h-12.9v11.1h-4v-11.1H547v-17.4h13.1v-7.1l4,0.2v6.9H577V498.7z M560.1,494.9v-9.6h-9v9.6H560.1z M573,485.3
				h-8.8v9.6h8.8V485.3z"/>
			<path d="M604.4,500.6c0.4-1.1,0.8-2.2,1.3-3.4c0.4-1.2,0.8-2.5,1.2-3.8c0.4-1.3,0.8-2.6,1.2-3.9c0.4-1.3,0.7-2.6,1-3.8l4,0.9
				c-0.3,1.2-0.6,2.5-1,3.8c-0.4,1.3-0.8,2.6-1.2,4c-0.4,1.3-0.8,2.6-1.3,3.9c-0.5,1.3-0.9,2.5-1.4,3.6L604.4,500.6z M618.5,502.2
				c0,0.5,0,1,0.1,1.3c0.1,0.3,0.2,0.6,0.4,0.8s0.5,0.3,0.8,0.4c0.4,0.1,0.8,0.1,1.4,0.2c1.4,0.1,2.8,0.1,4.2,0
				c0.7-0.1,1.2-0.1,1.6-0.3c0.4-0.1,0.7-0.3,0.9-0.5c0.2-0.2,0.4-0.5,0.5-0.8c0.1-0.3,0.2-0.7,0.3-1.2c0.1-0.7,0.2-1.3,0.3-1.9
				c0.1-0.6,0.1-1.4,0.2-2.2l4.1,1.4c-0.1,0.9-0.2,1.7-0.3,2.3c-0.1,0.6-0.2,1.3-0.4,2c-0.2,1-0.4,1.8-0.7,2.4
				c-0.3,0.6-0.6,1.2-1.1,1.6c-0.5,0.4-1.1,0.7-1.8,0.9c-0.7,0.2-1.7,0.3-2.8,0.4c-1.9,0.1-3.9,0.1-5.8,0c-1.1-0.1-2-0.2-2.8-0.4
				c-0.8-0.2-1.4-0.5-1.9-0.9c-0.5-0.4-0.8-1-1.1-1.8c-0.2-0.7-0.3-1.7-0.3-2.9v-20.5l4.2,0.2V502.2z M620.7,474.4
				c1.6,2,3.1,3.9,4.4,5.7c1.3,1.8,2.7,3.6,4.1,5.5l-3.3,2.9c-1.3-2-2.6-3.9-3.9-5.8c-1.3-1.9-2.8-3.9-4.3-5.9L620.7,474.4z
				 M634.1,484.9c1.2,2.4,2.4,4.8,3.5,7.2c1.1,2.4,2.2,4.8,3.3,7.2l-3.6,2c-1-2.5-2.1-4.9-3.2-7.4c-1.1-2.4-2.3-4.9-3.5-7.4
				L634.1,484.9z"/>
		</g>
	</g>
</g>
</svg>
